<?xml version="1.0" encoding="UTF-8"?>
<svg width="64px" height="64px" viewBox="0 0 64 64" version="1.1" xmlns="http://www.w3.org/2000/svg" xmlns:xlink="http://www.w3.org/1999/xlink">
    <title>select-icon</title>
    <g id="select-icon" stroke="none" stroke-width="1" fill="none" fill-rule="evenodd">
        <g id="sort-up-solid" transform="translate(12.000000, 2.250000)" fill="#000000" fill-rule="nonzero">
            <path d="M3.45751703,24.003375 L36.545017,24.003375 C39.620017,24.003375 41.156267,20.280875 38.987517,18.113375 L22.450017,1.013375 C21.774267,0.337625 20.891267,0 20.008767,0 C19.126892,0 18.247517,0.337625 17.577517,1.013375 L1.01489203,18.115875 C-1.15360797,20.278375 0.38189203,24.003375 3.45751703,24.003375 Z" id="Path"></path>
        </g>
        <g id="sort-down-solid" transform="translate(12.000000, 37.750000)" fill="#000000" fill-rule="nonzero">
            <path d="M38.9870909,5.8875 L22.4370909,22.9875 C21.7620909,23.6625 20.8870909,24 19.9995909,24 C19.1177159,24 18.2345909,23.66225 17.5658409,22.986375 L1.01584094,5.886375 C-1.15403406,3.725 0.381465944,0 3.45709094,0 L36.5445909,0 C39.6120909,0 41.1495909,3.725 38.9870909,5.8875 Z" id="Path"></path>
        </g>
    </g>
</svg>